<?xml version="1.0" encoding="UTF-8" standalone="no"?>
<svg width="54px" height="54px" viewBox="0 0 54 54" version="1.1" xmlns="http://www.w3.org/2000/svg" xmlns:xlink="http://www.w3.org/1999/xlink" xmlns:sketch="http://www.bohemiancoding.com/sketch/ns">
    <!-- Generator: Sketch 3.2.2 (9983) - http://www.bohemiancoding.com/sketch -->
    <title>47 - Down (Flat)</title>
    <desc>Created with Sketch.</desc>
    <defs></defs>
    <g id="Page-1" stroke="none" stroke-width="1" fill="none" fill-rule="evenodd" sketch:type="MSPage">
        <g id="47---Down-(Flat)" sketch:type="MSLayerGroup">
            <path d="M1,49.217 L1,4.783 C1,2.693 2.694,1 4.783,1 L49.217,1 C51.306,1 53,2.693 53,4.783 L53,49.217 C53,51.306 51.306,53 49.217,53 L4.783,53 C2.694,53 1,51.306 1,49.217" id="Fill-558" fill="#0096E6" sketch:type="MSShapeGroup"></path>
            <path d="M49.217,54 L4.783,54 C2.146,54 0,51.854 0,49.218 L0,4.783 C0,2.145 2.146,0 4.783,0 L49.217,0 C51.854,0 54,2.145 54,4.782 L54,49.217 C54,51.854 51.854,54 49.217,54 L49.217,54 Z M4.783,2 C3.248,2 2,3.249 2,4.783 L2,49.218 C2,50.752 3.248,52 4.783,52 L49.217,52 C50.751,52 52,50.751 52,49.217 L52,4.782 C52,3.248 50.751,2 49.217,2 L4.783,2 L4.783,2 Z" id="Fill-559" fill="#0096E6" sketch:type="MSShapeGroup"></path>
            <path d="M26.159,39.543 L13.984,18.456 C13.611,17.809 14.078,17 14.825,17 L39.175,17 C39.922,17 40.389,17.809 40.016,18.456 L27.841,39.543 C27.467,40.191 26.533,40.191 26.159,39.543" id="Fill-560" fill="#FFFFFF" sketch:type="MSShapeGroup"></path>
            <path d="M27,41.029 C26.288,41.029 25.649,40.661 25.293,40.044 L13.118,18.956 C12.762,18.34 12.762,17.602 13.118,16.985 C13.475,16.368 14.113,16 14.825,16 L39.175,16 C39.887,16 40.525,16.368 40.882,16.985 C41.238,17.602 41.238,18.34 40.881,18.956 L28.707,40.044 C28.351,40.661 27.712,41.029 27,41.029 L27,41.029 Z M39.149,17.956 L14.825,18 L27,39 L39.149,17.956 L39.149,17.956 Z" id="Fill-561" fill="#FFFFFF" sketch:type="MSShapeGroup"></path>
        </g>
    </g>
</svg>